<svg xmlns="http://www.w3.org/2000/svg" xmlns:xlink="http://www.w3.org/1999/xlink" aria-hidden="true" role="img" class="iconify iconify--mdi" width="100%" height="100%" preserveAspectRatio="xMidYMid meet" viewBox="0 0 24 24"><defs><symbol id="icon-github" viewBox="0 0 24 24"><path fill="currentColor" d="M12 2A10 10 0 0 0 2 12c0 4.42 2.865 8.17 6.839 9.49.5.092.682-.217.682-.482 0-.237-.008-.866-.013-1.7-2.782.603-3.369-1.343-3.369-1.343-.454-1.156-1.11-1.463-1.11-1.463-.908-.62.069-.608.069-.608 1.003.07 1.531 1.03 1.531 1.03.892 1.529 2.341 1.547 2.906 1.185.092-.923.35-1.548.636-1.904-2.22-.253-4.555-1.11-4.555-4.943 0-1.091.39-1.984 1.029-2.683-.103-.253-.446-1.27.098-2.647 0 0 .84-.269 2.75 1.025A9.578 9.578 0 0 1 12 6.836c.85.004 1.705.114 2.504.336 1.909-1.294 2.747-1.025 2.747-1.025.546 1.377.203 2.394.1 2.647.64.699 1.028 1.592 1.028 2.683 0 3.842-2.339 4.687-4.566 4.935.359.309.678.919.678 1.852 0 1.336-.012 2.415-.012 2.743 0 .267.18.578.688.48C19.137 20.167 22 16.418 22 12a10 10 0 0 0-10-10z"></path></symbol><symbol id="icon-discord" viewBox="0 0 24 24"><path fill="currentColor" d="M20.317 4.369a19.791 19.791 0 0 0-4.885-1.515a.074.074 0 0 0-.079.037c-.211.375-.444.865-.607 1.252a18.27 18.27 0 0 0-5.487 0c-.163-.387-.395-.877-.607-1.252a.077.077 0 0 0-.079-.037A19.736 19.736 0 0 0 3.677 4.369a.07.07 0 0 0-.032.027C.533 9.046-.321 13.58.099 18.057a.082.082 0 0 0 .031.056a19.9 19.9 0 0 0 5.993 3.03a.078.078 0 0 0 .084-.028a14.975 14.975 0 0 0 1.293-2.1a.07.07 0 0 0-.038-.098a13.11 13.11 0 0 1-1.872-.892a.072.072 0 0 1-.009-.119c.125-.094.25-.194.369-.301a.071.071 0 0 1 .073-.01c3.928 1.793 8.18 1.793 12.062 0a.071.071 0 0 1 .074.009c.12.107.244.208.369.302a.072.072 0 0 1-.008.119c-.598.35-1.22.656-1.873.891a.075.075 0 0 0-.037.099c.36.687.772 1.341 1.293 2.1a.074.074 0 0 0 .084.028a19.963 19.963 0 0 0 6.002-3.03a.079.079 0 0 0 .033-.056c.44-4.423.408-8.947-.878-13.652a.061.061 0 0 0-.031-.03zM8.02 15.33c-1.183 0-2.157-.965-2.157-2.156c0-1.193.963-2.157 2.157-2.157c1.201 0 2.169.964 2.157 2.157c0 1.191-.963 2.156-2.157 2.156zm7.975 0c-1.183 0-2.157-.965-2.157-2.156c0-1.193.962-2.157 2.157-2.157c1.2 0 2.168.964 2.157 2.157c0 1.191-.957 2.156-2.157 2.156z"></path></symbol><symbol id="icon-twitter" viewBox="0 0 24 24"><path fill="currentColor" d="M23 3a10.9 10.9 0 01-3.14 1.53a4.48 4.48 0 00-7.86 3v1A10.66 10.66 0 013 4s-4 9 5 13a11.64 11.64 0 01-7 2s9 5 20 5a9.5 9.5 0 00-9-5.5c4.75 2.25 7-7 7-7a10.6 10.6 0 01-9-5.5z"></path></symbol><symbol id="icon-bluesky" viewBox="0 0 24 24"><path fill="currentColor" d="M12 10.5a2 2 0 1 0 0 4a2 2 0 0 0 0-4z"></path><path fill="currentColor" d="M12 2C6.477 2 2 5.373 2 9.5c0 2.822 1.664 5.27 4.326 6.72c-.41 1.04-1.063 2.29-1.996 3.39c-.41.5-.31 1.42.24 1.49c3.58.44 6.45-1.07 8.43-2.71c.57.15 1.17.23 1.8.23c5.523 0 10-3.373 10-7.5S17.523 2 12 2z"></path></symbol><symbol id="icon-documentation" viewBox="0 0 24 24"><path fill="currentColor" d="M14 2H6a2 2 0 0 0-2 2v16a2 2 0 0 0 2 2h12a2 2 0 0 0 2-2V8l-8-6z"></path><polyline points="14 2 14 8 20 8"></polyline><line x1="12" y1="13" x2="8" y2="13"></line><line x1="12" y1="17" x2="8" y2="17"></line></symbol><symbol id="icon-social" viewBox="0 0 24 24"><circle cx="12" cy="12" r="1"></circle><circle cx="19" cy="12" r="1"></circle><circle cx="5" cy="12" r="1"></circle></symbol></defs></svg>
